<mxfile host="app.diagrams.net" modified="2023-05-19T19:46:15.853Z" agent="Mozilla/5.0 (X11; Ubuntu; Linux x86_64; rv:89.0) Gecko/20100101 Firefox/89.0" etag="2bZVp_Gseqkta-VLN5lw" version="21.3.2" type="google">
  <diagram name="PÃ¡gina-1" id="vPxHCxNjAsCI3XiNhEDE">
    <mxGraphModel dx="954" dy="594" grid="1" gridSize="10" guides="1" tooltips="1" connect="1" arrows="1" fold="1" page="1" pageScale="1" pageWidth="827" pageHeight="1169" math="0" shadow="0">
      <root>
        <mxCell id="0" />
        <mxCell id="1" parent="0" />
        <mxCell id="Jrii94dBgEtvmJZv5gz_-2" value="Clinte" style="rounded=0;whiteSpace=wrap;html=1;" vertex="1" parent="1">
          <mxGeometry x="10" y="50" width="120" height="60" as="geometry" />
        </mxCell>
        <mxCell id="Jrii94dBgEtvmJZv5gz_-9" value="" style="endArrow=classic;html=1;rounded=0;" edge="1" parent="1">
          <mxGeometry width="50" height="50" relative="1" as="geometry">
            <mxPoint x="130" y="70" as="sourcePoint" />
            <mxPoint x="210" y="60" as="targetPoint" />
            <Array as="points" />
          </mxGeometry>
        </mxCell>
        <mxCell id="Jrii94dBgEtvmJZv5gz_-10" value="" style="endArrow=classic;html=1;rounded=0;" edge="1" parent="1">
          <mxGeometry width="50" height="50" relative="1" as="geometry">
            <mxPoint x="130" y="100" as="sourcePoint" />
            <mxPoint x="200" y="120" as="targetPoint" />
            <Array as="points" />
          </mxGeometry>
        </mxCell>
        <mxCell id="Jrii94dBgEtvmJZv5gz_-11" value="Cadastro" style="ellipse;whiteSpace=wrap;html=1;" vertex="1" parent="1">
          <mxGeometry x="210" y="30" width="100" height="60" as="geometry" />
        </mxCell>
        <mxCell id="Jrii94dBgEtvmJZv5gz_-12" value="Login" style="ellipse;whiteSpace=wrap;html=1;" vertex="1" parent="1">
          <mxGeometry x="190" y="110" width="100" height="60" as="geometry" />
        </mxCell>
        <mxCell id="Jrii94dBgEtvmJZv5gz_-13" value="" style="endArrow=none;dashed=1;html=1;rounded=0;exitX=0.7;exitY=0.017;exitDx=0;exitDy=0;exitPerimeter=0;" edge="1" parent="1" source="Jrii94dBgEtvmJZv5gz_-12">
          <mxGeometry width="50" height="50" relative="1" as="geometry">
            <mxPoint x="230" y="120" as="sourcePoint" />
            <mxPoint x="260" y="90" as="targetPoint" />
            <Array as="points">
              <mxPoint x="260" y="100" />
            </Array>
          </mxGeometry>
        </mxCell>
        <mxCell id="Jrii94dBgEtvmJZv5gz_-15" value="" style="endArrow=classic;html=1;rounded=0;entryX=0.042;entryY=0.667;entryDx=0;entryDy=0;entryPerimeter=0;" edge="1" parent="1" target="Jrii94dBgEtvmJZv5gz_-16">
          <mxGeometry width="50" height="50" relative="1" as="geometry">
            <mxPoint x="290" y="145" as="sourcePoint" />
            <mxPoint x="360" y="130" as="targetPoint" />
          </mxGeometry>
        </mxCell>
        <mxCell id="Jrii94dBgEtvmJZv5gz_-16" value="Procurar produto" style="ellipse;whiteSpace=wrap;html=1;" vertex="1" parent="1">
          <mxGeometry x="340" y="110" width="96" height="60" as="geometry" />
        </mxCell>
        <mxCell id="Jrii94dBgEtvmJZv5gz_-17" value="" style="endArrow=classic;html=1;rounded=0;entryX=0.08;entryY=0.167;entryDx=0;entryDy=0;entryPerimeter=0;exitX=1;exitY=0.5;exitDx=0;exitDy=0;" edge="1" parent="1" source="Jrii94dBgEtvmJZv5gz_-16" target="Jrii94dBgEtvmJZv5gz_-19">
          <mxGeometry width="50" height="50" relative="1" as="geometry">
            <mxPoint x="440" y="133" as="sourcePoint" />
            <mxPoint x="480" y="160" as="targetPoint" />
            <Array as="points" />
          </mxGeometry>
        </mxCell>
        <mxCell id="Jrii94dBgEtvmJZv5gz_-19" value="Adicionar produto ao carrinho" style="ellipse;whiteSpace=wrap;html=1;" vertex="1" parent="1">
          <mxGeometry x="460" y="170" width="100" height="60" as="geometry" />
        </mxCell>
        <mxCell id="Jrii94dBgEtvmJZv5gz_-20" value="" style="endArrow=classic;html=1;rounded=0;entryX=0.5;entryY=0;entryDx=0;entryDy=0;exitX=0.5;exitY=1;exitDx=0;exitDy=0;" edge="1" parent="1" source="Jrii94dBgEtvmJZv5gz_-19" target="Jrii94dBgEtvmJZv5gz_-21">
          <mxGeometry width="50" height="50" relative="1" as="geometry">
            <mxPoint x="570" y="183" as="sourcePoint" />
            <mxPoint x="610" y="210" as="targetPoint" />
            <Array as="points" />
          </mxGeometry>
        </mxCell>
        <mxCell id="Jrii94dBgEtvmJZv5gz_-21" value="Finalizar Compra" style="ellipse;whiteSpace=wrap;html=1;" vertex="1" parent="1">
          <mxGeometry x="446" y="270" width="90" height="60" as="geometry" />
        </mxCell>
        <mxCell id="Jrii94dBgEtvmJZv5gz_-22" value="" style="endArrow=classic;html=1;rounded=0;entryX=1;entryY=0;entryDx=0;entryDy=0;exitX=0.044;exitY=0.683;exitDx=0;exitDy=0;exitPerimeter=0;" edge="1" parent="1" source="Jrii94dBgEtvmJZv5gz_-21" target="Jrii94dBgEtvmJZv5gz_-23">
          <mxGeometry width="50" height="50" relative="1" as="geometry">
            <mxPoint x="644.5" y="260" as="sourcePoint" />
            <mxPoint x="645" y="300" as="targetPoint" />
          </mxGeometry>
        </mxCell>
        <mxCell id="Jrii94dBgEtvmJZv5gz_-23" value="Formas de pagamento" style="ellipse;whiteSpace=wrap;html=1;" vertex="1" parent="1">
          <mxGeometry x="366" y="340" width="95" height="60" as="geometry" />
        </mxCell>
        <mxCell id="Jrii94dBgEtvmJZv5gz_-25" value="Administrador" style="rounded=0;whiteSpace=wrap;html=1;" vertex="1" parent="1">
          <mxGeometry x="10" y="200" width="120" height="60" as="geometry" />
        </mxCell>
        <mxCell id="Jrii94dBgEtvmJZv5gz_-26" value="" style="endArrow=classic;html=1;rounded=0;entryX=0.055;entryY=0.314;entryDx=0;entryDy=0;entryPerimeter=0;" edge="1" parent="1" target="Jrii94dBgEtvmJZv5gz_-27">
          <mxGeometry width="50" height="50" relative="1" as="geometry">
            <mxPoint x="130" y="235" as="sourcePoint" />
            <mxPoint x="190" y="240" as="targetPoint" />
            <Array as="points" />
          </mxGeometry>
        </mxCell>
        <mxCell id="Jrii94dBgEtvmJZv5gz_-27" value="Verificar o produto no estoque" style="ellipse;whiteSpace=wrap;html=1;" vertex="1" parent="1">
          <mxGeometry x="180" y="230" width="110" height="70" as="geometry" />
        </mxCell>
        <mxCell id="Jrii94dBgEtvmJZv5gz_-28" value="" style="endArrow=classic;html=1;rounded=0;entryX=1;entryY=0.414;entryDx=0;entryDy=0;entryPerimeter=0;exitX=0.02;exitY=0.65;exitDx=0;exitDy=0;exitPerimeter=0;" edge="1" parent="1" source="Jrii94dBgEtvmJZv5gz_-19" target="Jrii94dBgEtvmJZv5gz_-27">
          <mxGeometry width="50" height="50" relative="1" as="geometry">
            <mxPoint x="420" y="230" as="sourcePoint" />
            <mxPoint x="470" y="180" as="targetPoint" />
          </mxGeometry>
        </mxCell>
        <mxCell id="Jrii94dBgEtvmJZv5gz_-30" value="" style="endArrow=classic;html=1;rounded=0;exitX=0;exitY=0.5;exitDx=0;exitDy=0;entryX=1;entryY=0.5;entryDx=0;entryDy=0;" edge="1" parent="1" source="Jrii94dBgEtvmJZv5gz_-23" target="Jrii94dBgEtvmJZv5gz_-32">
          <mxGeometry width="50" height="50" relative="1" as="geometry">
            <mxPoint x="340" y="360" as="sourcePoint" />
            <mxPoint x="340" y="370" as="targetPoint" />
          </mxGeometry>
        </mxCell>
        <mxCell id="Jrii94dBgEtvmJZv5gz_-32" value="Cadastrar Dados" style="ellipse;whiteSpace=wrap;html=1;" vertex="1" parent="1">
          <mxGeometry x="255" y="370" width="85" height="50" as="geometry" />
        </mxCell>
        <mxCell id="Jrii94dBgEtvmJZv5gz_-33" value="" style="endArrow=classic;html=1;rounded=0;exitX=0.021;exitY=0.383;exitDx=0;exitDy=0;exitPerimeter=0;entryX=0.947;entryY=0.667;entryDx=0;entryDy=0;entryPerimeter=0;" edge="1" parent="1" source="Jrii94dBgEtvmJZv5gz_-32" target="Jrii94dBgEtvmJZv5gz_-35">
          <mxGeometry width="50" height="50" relative="1" as="geometry">
            <mxPoint x="260" y="390" as="sourcePoint" />
            <mxPoint x="230" y="380" as="targetPoint" />
          </mxGeometry>
        </mxCell>
        <mxCell id="Jrii94dBgEtvmJZv5gz_-35" value="Pagar" style="ellipse;whiteSpace=wrap;html=1;" vertex="1" parent="1">
          <mxGeometry x="160" y="390" width="75" height="50" as="geometry" />
        </mxCell>
        <mxCell id="Jrii94dBgEtvmJZv5gz_-36" value="Confirmar Pagamento" style="ellipse;whiteSpace=wrap;html=1;" vertex="1" parent="1">
          <mxGeometry x="40" y="310" width="110" height="70" as="geometry" />
        </mxCell>
        <mxCell id="Jrii94dBgEtvmJZv5gz_-37" value="" style="endArrow=classic;html=1;rounded=0;entryX=0.345;entryY=-0.029;entryDx=0;entryDy=0;entryPerimeter=0;exitX=0.308;exitY=1.017;exitDx=0;exitDy=0;exitPerimeter=0;" edge="1" parent="1" source="Jrii94dBgEtvmJZv5gz_-25" target="Jrii94dBgEtvmJZv5gz_-36">
          <mxGeometry width="50" height="50" relative="1" as="geometry">
            <mxPoint x="60" y="260" as="sourcePoint" />
            <mxPoint x="110" y="210" as="targetPoint" />
          </mxGeometry>
        </mxCell>
        <mxCell id="Jrii94dBgEtvmJZv5gz_-38" value="" style="endArrow=classic;html=1;rounded=0;exitX=0;exitY=0;exitDx=0;exitDy=0;entryX=1;entryY=1;entryDx=0;entryDy=0;" edge="1" parent="1" source="Jrii94dBgEtvmJZv5gz_-35" target="Jrii94dBgEtvmJZv5gz_-36">
          <mxGeometry width="50" height="50" relative="1" as="geometry">
            <mxPoint x="150" y="375" as="sourcePoint" />
            <mxPoint x="124" y="400" as="targetPoint" />
          </mxGeometry>
        </mxCell>
        <mxCell id="Jrii94dBgEtvmJZv5gz_-39" value="Enviar Produto" style="ellipse;whiteSpace=wrap;html=1;" vertex="1" parent="1">
          <mxGeometry x="50" y="420" width="100" height="70" as="geometry" />
        </mxCell>
        <mxCell id="Jrii94dBgEtvmJZv5gz_-40" value="" style="endArrow=classic;html=1;rounded=0;entryX=0.37;entryY=0.043;entryDx=0;entryDy=0;entryPerimeter=0;exitX=0.391;exitY=1.086;exitDx=0;exitDy=0;exitPerimeter=0;" edge="1" parent="1" source="Jrii94dBgEtvmJZv5gz_-36" target="Jrii94dBgEtvmJZv5gz_-39">
          <mxGeometry width="50" height="50" relative="1" as="geometry">
            <mxPoint x="70" y="380" as="sourcePoint" />
            <mxPoint x="101" y="427" as="targetPoint" />
          </mxGeometry>
        </mxCell>
      </root>
    </mxGraphModel>
  </diagram>
</mxfile>
